<mxfile host="app.diagrams.net" modified="2023-05-22T09:05:15.845Z" agent="Mozilla/5.0 (Windows NT 10.0; Win64; x64) AppleWebKit/537.36 (KHTML, like Gecko) Chrome/113.0.0.0 Safari/537.36" etag="0EGgXcX6fmcs3xWf3o8F" version="21.3.2" type="github">
  <diagram name="Page-1" id="WqVpLDhmthB3amcT0Lqy">
    <mxGraphModel dx="1560" dy="912" grid="1" gridSize="10" guides="1" tooltips="1" connect="1" arrows="1" fold="1" page="1" pageScale="1" pageWidth="850" pageHeight="1100" math="0" shadow="0">
      <root>
        <mxCell id="0" />
        <mxCell id="1" parent="0" />
        <mxCell id="rkUVXD0O67Qp-18e9q78-1" value="" style="rounded=0;whiteSpace=wrap;html=1;fillColor=#000000;" vertex="1" parent="1">
          <mxGeometry x="40" y="1161" width="120" height="60" as="geometry" />
        </mxCell>
        <mxCell id="rkUVXD0O67Qp-18e9q78-2" value="" style="shape=image;verticalLabelPosition=bottom;labelBackgroundColor=default;verticalAlign=top;aspect=fixed;imageAspect=0;image=https://logos-world.net/wp-content/uploads/2021/03/Microsoft-Azure-Logo.png;" vertex="1" parent="1">
          <mxGeometry x="40" y="40" width="88.74" height="50" as="geometry" />
        </mxCell>
        <mxCell id="rkUVXD0O67Qp-18e9q78-3" value="&lt;h1&gt;Automate alerts and actions with budgets&lt;br&gt;&lt;/h1&gt;&lt;p&gt;There are 2 critical components to maximizing the value of your investment in the cloud.&lt;/p&gt;" style="text;html=1;strokeColor=none;fillColor=none;spacing=5;spacingTop=-20;whiteSpace=wrap;overflow=hidden;rounded=0;" vertex="1" parent="1">
          <mxGeometry x="40" y="160" width="360" height="120" as="geometry" />
        </mxCell>
        <mxCell id="rkUVXD0O67Qp-18e9q78-4" style="edgeStyle=orthogonalEdgeStyle;rounded=0;orthogonalLoop=1;jettySize=auto;html=1;exitX=0.5;exitY=1;exitDx=0;exitDy=0;entryX=0.5;entryY=0;entryDx=0;entryDy=0;" edge="1" parent="1" source="rkUVXD0O67Qp-18e9q78-6" target="rkUVXD0O67Qp-18e9q78-10">
          <mxGeometry relative="1" as="geometry" />
        </mxCell>
        <mxCell id="rkUVXD0O67Qp-18e9q78-5" style="edgeStyle=orthogonalEdgeStyle;rounded=0;orthogonalLoop=1;jettySize=auto;html=1;exitX=0.5;exitY=1;exitDx=0;exitDy=0;" edge="1" parent="1" source="rkUVXD0O67Qp-18e9q78-6" target="rkUVXD0O67Qp-18e9q78-12">
          <mxGeometry relative="1" as="geometry" />
        </mxCell>
        <mxCell id="rkUVXD0O67Qp-18e9q78-6" value="Automatic budget creation." style="rounded=1;whiteSpace=wrap;html=1;fillColor=#dae8fc;strokeColor=#6c8ebf;" vertex="1" parent="1">
          <mxGeometry x="60" y="320" width="120" height="60" as="geometry" />
        </mxCell>
        <mxCell id="rkUVXD0O67Qp-18e9q78-7" value="Configuring cost-based orchestration in response to budget alerts." style="rounded=1;whiteSpace=wrap;html=1;fillColor=#dae8fc;strokeColor=#6c8ebf;" vertex="1" parent="1">
          <mxGeometry x="920" y="320" width="120" height="60" as="geometry" />
        </mxCell>
        <mxCell id="rkUVXD0O67Qp-18e9q78-8" value="1" style="ellipse;whiteSpace=wrap;html=1;aspect=fixed;fillColor=#000000;fontColor=#FFFFFF;" vertex="1" parent="1">
          <mxGeometry x="50" y="310" width="20" height="20" as="geometry" />
        </mxCell>
        <mxCell id="rkUVXD0O67Qp-18e9q78-9" value="2" style="ellipse;whiteSpace=wrap;html=1;aspect=fixed;fillColor=#000000;fontColor=#FFFFFF;" vertex="1" parent="1">
          <mxGeometry x="910" y="310" width="20" height="20" as="geometry" />
        </mxCell>
        <mxCell id="rkUVXD0O67Qp-18e9q78-10" value="Budgets API" style="rounded=1;whiteSpace=wrap;html=1;fillColor=#dae8fc;strokeColor=#6c8ebf;" vertex="1" parent="1">
          <mxGeometry y="440" width="120" height="30" as="geometry" />
        </mxCell>
        <mxCell id="rkUVXD0O67Qp-18e9q78-11" style="edgeStyle=orthogonalEdgeStyle;rounded=0;orthogonalLoop=1;jettySize=auto;html=1;exitX=0.5;exitY=1;exitDx=0;exitDy=0;entryX=0.5;entryY=0;entryDx=0;entryDy=0;" edge="1" parent="1" source="rkUVXD0O67Qp-18e9q78-12" target="rkUVXD0O67Qp-18e9q78-14">
          <mxGeometry relative="1" as="geometry" />
        </mxCell>
        <mxCell id="rkUVXD0O67Qp-18e9q78-12" value="budget template" style="rounded=1;whiteSpace=wrap;html=1;fillColor=#dae8fc;strokeColor=#6c8ebf;" vertex="1" parent="1">
          <mxGeometry x="120" y="440" width="120" height="30" as="geometry" />
        </mxCell>
        <mxCell id="rkUVXD0O67Qp-18e9q78-13" value="&lt;h1&gt;&lt;br&gt;&lt;/h1&gt;&lt;p&gt;With budgets, you&#39;re alerted when costs cross a set threshold. You can set up to five email recipients per budget. Recipients receive the email alerts within 24 hours of crossing the budget threshold. However, your recipient might need to receive an email in a different language. You can use the following language culture codes with the Budgets API. Set the culture code with the locale parameter similar to the following example.&lt;/p&gt;" style="text;html=1;strokeColor=none;fillColor=none;spacing=5;spacingTop=-20;whiteSpace=wrap;overflow=hidden;rounded=0;" vertex="1" parent="1">
          <mxGeometry x="280" y="280" width="280" height="200" as="geometry" />
        </mxCell>
        <mxCell id="rkUVXD0O67Qp-18e9q78-14" value="" style="shape=image;imageAspect=0;aspect=fixed;verticalLabelPosition=bottom;verticalAlign=top;image=https://learn.microsoft.com/en-us/azure/cost-management-billing/costs/media/quick-create-budget-template/create-budget-simple-image.png#lightbox;" vertex="1" parent="1">
          <mxGeometry x="120" y="520" width="444" height="520" as="geometry" />
        </mxCell>
        <mxCell id="rkUVXD0O67Qp-18e9q78-15" value="" style="shape=image;imageAspect=0;aspect=fixed;verticalLabelPosition=bottom;verticalAlign=top;image=https://learn.microsoft.com/en-us/azure/cost-management-billing/manage/media/cost-management-budget-scenario/billing-cost-management-budget-scenario-01.png;" vertex="1" parent="1">
          <mxGeometry x="920" y="440" width="520" height="466" as="geometry" />
        </mxCell>
        <mxCell id="rkUVXD0O67Qp-18e9q78-16" value="" style="shape=image;imageAspect=0;aspect=fixed;verticalLabelPosition=bottom;verticalAlign=top;image=https://learn.microsoft.com/en-us/azure/cost-management-billing/manage/media/cost-management-budget-scenario/billing-cost-management-budget-scenario-02.png;" vertex="1" parent="1">
          <mxGeometry x="920" y="920" width="520" height="242" as="geometry" />
        </mxCell>
        <mxCell id="rkUVXD0O67Qp-18e9q78-17" value="&lt;h1&gt;&lt;br&gt;&lt;/h1&gt;&lt;p&gt;In this example, you&#39;ll set up a scenario where you get a couple of notifications, the first notification is for when 80% of the budget has been reached and the second notification is when 100% of the budget has been reached. The logic app will be used to shut down all VMs in the resource group.&lt;br&gt;&lt;/p&gt;" style="text;html=1;strokeColor=none;fillColor=none;spacing=5;spacingTop=-20;whiteSpace=wrap;overflow=hidden;rounded=0;" vertex="1" parent="1">
          <mxGeometry x="920" y="1200" width="520" height="120" as="geometry" />
        </mxCell>
        <mxCell id="rkUVXD0O67Qp-18e9q78-18" value="&lt;h1&gt;&lt;br&gt;&lt;/h1&gt;&lt;p&gt;The logic app will perform several actions. The following list provides a high-level set of actions that the logic app will perform:&lt;/p&gt;&lt;p&gt;&lt;br&gt;&lt;/p&gt;&lt;p&gt;Recognizes when an HTTP request is received&lt;/p&gt;&lt;p&gt;Parse the passed in JSON data to determine the threshold value that has been reached&lt;/p&gt;&lt;p&gt;Use a conditional statement to check whether the threshold amount has reached 80% or more of the budget range, but not greater than or equal to 100%.&lt;/p&gt;&lt;p&gt;If this threshold amount has been reached, send an HTTP POST using the webhook named Optional. This action will shut down the VMs in the &quot;Optional&quot; group.&lt;/p&gt;&lt;p&gt;Use a conditional statement to check whether the threshold amount has reached or exceeded 100% of the budget value.&lt;/p&gt;&lt;p&gt;If the threshold amount has been reached, send an HTTP POST using the webhook named Complete. This action will shut down all remaining VMs.&lt;/p&gt;" style="text;html=1;strokeColor=none;fillColor=none;spacing=5;spacingTop=-20;whiteSpace=wrap;overflow=hidden;rounded=0;" vertex="1" parent="1">
          <mxGeometry x="920" y="1360" width="520" height="360" as="geometry" />
        </mxCell>
        <mxCell id="rkUVXD0O67Qp-18e9q78-19" value="" style="shape=image;imageAspect=0;aspect=fixed;verticalLabelPosition=bottom;verticalAlign=top;image=https://learn.microsoft.com/en-us/azure/cost-management-billing/manage/media/cost-management-budget-scenario/billing-cost-management-budget-scenario-03.png;" vertex="1" parent="1">
          <mxGeometry x="920" y="1720" width="520" height="408" as="geometry" />
        </mxCell>
        <mxCell id="rkUVXD0O67Qp-18e9q78-20" value="" style="shape=image;imageAspect=0;aspect=fixed;verticalLabelPosition=bottom;verticalAlign=top;image=https://learn.microsoft.com/en-us/azure/cost-management-billing/manage/media/cost-management-budget-scenario/billing-cost-management-budget-scenario-03a.png;" vertex="1" parent="1">
          <mxGeometry x="920" y="2160" width="438" height="520" as="geometry" />
        </mxCell>
        <mxCell id="rkUVXD0O67Qp-18e9q78-21" value="" style="shape=image;imageAspect=0;aspect=fixed;verticalLabelPosition=bottom;verticalAlign=top;image=https://learn.microsoft.com/en-us/azure/cost-management-billing/manage/media/cost-management-budget-scenario/billing-cost-management-budget-scenario-04.png;" vertex="1" parent="1">
          <mxGeometry x="920" y="2720" width="520" height="287" as="geometry" />
        </mxCell>
        <mxCell id="rkUVXD0O67Qp-18e9q78-22" value="" style="shape=image;imageAspect=0;aspect=fixed;verticalLabelPosition=bottom;verticalAlign=top;image=https://learn.microsoft.com/en-us/azure/cost-management-billing/manage/media/cost-management-budget-scenario/billing-cost-management-budget-scenario-05.png;" vertex="1" parent="1">
          <mxGeometry x="920" y="3040" width="520" height="354" as="geometry" />
        </mxCell>
        <mxCell id="rkUVXD0O67Qp-18e9q78-23" value="" style="shape=image;imageAspect=0;aspect=fixed;verticalLabelPosition=bottom;verticalAlign=top;image=https://learn.microsoft.com/en-us/azure/cost-management-billing/manage/media/cost-management-budget-scenario/billing-cost-management-budget-scenario-06.png;" vertex="1" parent="1">
          <mxGeometry x="920" y="3440" width="520" height="360" as="geometry" />
        </mxCell>
        <mxCell id="rkUVXD0O67Qp-18e9q78-24" value="" style="shape=image;imageAspect=0;aspect=fixed;verticalLabelPosition=bottom;verticalAlign=top;image=https://learn.microsoft.com/en-us/azure/cost-management-billing/manage/media/cost-management-budget-scenario/billing-cost-management-budget-scenario-07.png;" vertex="1" parent="1">
          <mxGeometry x="920" y="3840" width="520" height="293" as="geometry" />
        </mxCell>
        <mxCell id="rkUVXD0O67Qp-18e9q78-25" value="" style="shape=image;imageAspect=0;aspect=fixed;verticalLabelPosition=bottom;verticalAlign=top;image=https://learn.microsoft.com/en-us/azure/cost-management-billing/manage/media/cost-management-budget-scenario/billing-cost-management-budget-scenario-08.png;" vertex="1" parent="1">
          <mxGeometry x="920" y="4160" width="520" height="206" as="geometry" />
        </mxCell>
        <mxCell id="rkUVXD0O67Qp-18e9q78-26" value="" style="shape=image;imageAspect=0;aspect=fixed;verticalLabelPosition=bottom;verticalAlign=top;image=https://learn.microsoft.com/en-us/azure/cost-management-billing/manage/media/cost-management-budget-scenario/billing-cost-management-budget-scenario-09.png;" vertex="1" parent="1">
          <mxGeometry x="920" y="4440" width="420" height="179" as="geometry" />
        </mxCell>
        <mxCell id="rkUVXD0O67Qp-18e9q78-27" value="" style="shape=image;imageAspect=0;aspect=fixed;verticalLabelPosition=bottom;verticalAlign=top;image=https://learn.microsoft.com/en-us/azure/cost-management-billing/manage/media/cost-management-budget-scenario/billing-cost-management-budget-scenario-10.png;" vertex="1" parent="1">
          <mxGeometry x="920" y="4640" width="520" height="183" as="geometry" />
        </mxCell>
        <mxCell id="rkUVXD0O67Qp-18e9q78-28" value="" style="shape=image;imageAspect=0;aspect=fixed;verticalLabelPosition=bottom;verticalAlign=top;image=https://learn.microsoft.com/en-us/azure/cost-management-billing/manage/media/cost-management-budget-scenario/billing-cost-management-budget-scenario-11.png;" vertex="1" parent="1">
          <mxGeometry x="920" y="4840" width="389" height="480" as="geometry" />
        </mxCell>
        <mxCell id="rkUVXD0O67Qp-18e9q78-29" value="" style="shape=image;imageAspect=0;aspect=fixed;verticalLabelPosition=bottom;verticalAlign=top;image=https://learn.microsoft.com/en-us/azure/cost-management-billing/manage/media/cost-management-budget-scenario/billing-cost-management-budget-scenario-12.png;" vertex="1" parent="1">
          <mxGeometry x="920" y="5360" width="520" height="183" as="geometry" />
        </mxCell>
        <mxCell id="rkUVXD0O67Qp-18e9q78-30" value="" style="shape=image;imageAspect=0;aspect=fixed;verticalLabelPosition=bottom;verticalAlign=top;image=https://learn.microsoft.com/en-us/azure/cost-management-billing/manage/media/cost-management-budget-scenario/billing-cost-management-budget-scenario-13.png;" vertex="1" parent="1">
          <mxGeometry x="920" y="5560" width="481" height="182" as="geometry" />
        </mxCell>
        <mxCell id="rkUVXD0O67Qp-18e9q78-31" value="" style="shape=image;imageAspect=0;aspect=fixed;verticalLabelPosition=bottom;verticalAlign=top;image=https://learn.microsoft.com/en-us/azure/cost-management-billing/manage/media/cost-management-budget-scenario/billing-cost-management-budget-scenario-14.png;" vertex="1" parent="1">
          <mxGeometry x="920" y="5760" width="520" height="111" as="geometry" />
        </mxCell>
        <mxCell id="rkUVXD0O67Qp-18e9q78-32" value="" style="shape=image;imageAspect=0;aspect=fixed;verticalLabelPosition=bottom;verticalAlign=top;image=https://learn.microsoft.com/en-us/azure/cost-management-billing/manage/media/cost-management-budget-scenario/billing-cost-management-budget-scenario-15.png;" vertex="1" parent="1">
          <mxGeometry x="920" y="5880" width="411" height="520" as="geometry" />
        </mxCell>
        <mxCell id="rkUVXD0O67Qp-18e9q78-33" value="" style="shape=image;imageAspect=0;aspect=fixed;verticalLabelPosition=bottom;verticalAlign=top;image=https://learn.microsoft.com/en-us/azure/cost-management-billing/manage/media/cost-management-budget-scenario/billing-cost-management-budget-scenario-16.png;" vertex="1" parent="1">
          <mxGeometry x="920" y="6440" width="520" height="209" as="geometry" />
        </mxCell>
        <mxCell id="rkUVXD0O67Qp-18e9q78-34" value="" style="shape=image;imageAspect=0;aspect=fixed;verticalLabelPosition=bottom;verticalAlign=top;image=https://learn.microsoft.com/en-us/azure/cost-management-billing/manage/media/cost-management-budget-scenario/billing-cost-management-budget-scenario-17.png;" vertex="1" parent="1">
          <mxGeometry x="920" y="6680" width="463" height="520" as="geometry" />
        </mxCell>
        <mxCell id="rkUVXD0O67Qp-18e9q78-35" value="" style="shape=image;imageAspect=0;aspect=fixed;verticalLabelPosition=bottom;verticalAlign=top;image=https://learn.microsoft.com/en-us/azure/cost-management-billing/manage/media/cost-management-budget-scenario/billing-cost-management-budget-scenario-19.png;" vertex="1" parent="1">
          <mxGeometry x="920" y="7240" width="520" height="216" as="geometry" />
        </mxCell>
        <mxCell id="rkUVXD0O67Qp-18e9q78-36" value="" style="shape=image;imageAspect=0;aspect=fixed;verticalLabelPosition=bottom;verticalAlign=top;image=https://learn.microsoft.com/en-us/azure/cost-management-billing/manage/media/cost-management-budget-scenario/billing-cost-management-budget-scenario-20.png;" vertex="1" parent="1">
          <mxGeometry x="920" y="7480" width="420" height="179" as="geometry" />
        </mxCell>
        <mxCell id="rkUVXD0O67Qp-18e9q78-37" value="" style="shape=image;imageAspect=0;aspect=fixed;verticalLabelPosition=bottom;verticalAlign=top;image=https://learn.microsoft.com/en-us/azure/cost-management-billing/manage/media/cost-management-budget-scenario/billing-cost-management-budget-scenario-21.png;" vertex="1" parent="1">
          <mxGeometry x="920" y="7680" width="520" height="161" as="geometry" />
        </mxCell>
        <mxCell id="rkUVXD0O67Qp-18e9q78-38" value="" style="shape=image;imageAspect=0;aspect=fixed;verticalLabelPosition=bottom;verticalAlign=top;image=https://learn.microsoft.com/en-us/azure/cost-management-billing/manage/media/cost-management-budget-scenario/billing-cost-management-budget-scenario-22.png;" vertex="1" parent="1">
          <mxGeometry x="920" y="7880" width="520" height="111" as="geometry" />
        </mxCell>
        <mxCell id="rkUVXD0O67Qp-18e9q78-39" value="" style="shape=image;imageAspect=0;aspect=fixed;verticalLabelPosition=bottom;verticalAlign=top;image=https://learn.microsoft.com/en-us/azure/cost-management-billing/manage/media/cost-management-budget-scenario/billing-cost-management-budget-scenario-23.png;" vertex="1" parent="1">
          <mxGeometry x="920" y="8041" width="520" height="209" as="geometry" />
        </mxCell>
        <mxCell id="rkUVXD0O67Qp-18e9q78-40" value="" style="shape=image;imageAspect=0;aspect=fixed;verticalLabelPosition=bottom;verticalAlign=top;image=https://learn.microsoft.com/en-us/azure/cost-management-billing/manage/media/cost-management-budget-scenario/billing-cost-management-budget-scenario-24.png;" vertex="1" parent="1">
          <mxGeometry x="920" y="8280" width="520" height="117" as="geometry" />
        </mxCell>
        <mxCell id="rkUVXD0O67Qp-18e9q78-41" value="" style="shape=image;imageAspect=0;aspect=fixed;verticalLabelPosition=bottom;verticalAlign=top;image=https://learn.microsoft.com/en-us/azure/cost-management-billing/manage/media/cost-management-budget-scenario/billing-cost-management-budget-scenario-25.png;" vertex="1" parent="1">
          <mxGeometry x="920" y="8440" width="520" height="482" as="geometry" />
        </mxCell>
        <mxCell id="rkUVXD0O67Qp-18e9q78-42" value="Budgets can be set up to trigger a notification when a specified threshold is met. You can provide multiple thresholds to be notified at and the Logic App will demonstrate the ability for you to perform different actions based on the threshold met. In this example, you&#39;ll set up a scenario where you get a couple of notifications, the first notification is for when 80% of the budget has been reached and the second notification is when 100% of the budget has been reached. The logic app will be used to shut down all VMs in the resource group. First, the Optional threshold will be reached at 80%, then the second threshold will be reached where all VMs in the subscription will be shut down." style="rounded=0;whiteSpace=wrap;html=1;fillColor=#dae8fc;strokeColor=#6c8ebf;" vertex="1" parent="1">
          <mxGeometry x="1080" y="240" width="480" height="160" as="geometry" />
        </mxCell>
        <mxCell id="rkUVXD0O67Qp-18e9q78-43" value="" style="shape=image;imageAspect=0;aspect=fixed;verticalLabelPosition=bottom;verticalAlign=top;image=https://learn.microsoft.com/en-us/azure/cost-management-billing/manage/media/cost-management-budget-scenario/billing-cost-management-budget-scenario-26.png;" vertex="1" parent="1">
          <mxGeometry x="920" y="8960" width="520" height="193" as="geometry" />
        </mxCell>
        <mxCell id="rkUVXD0O67Qp-18e9q78-44" value="" style="shape=image;imageAspect=0;aspect=fixed;verticalLabelPosition=bottom;verticalAlign=top;image=https://learn.microsoft.com/en-us/azure/cost-management-billing/manage/media/cost-management-budget-scenario/billing-cost-management-budget-scenario-27.png;" vertex="1" parent="1">
          <mxGeometry x="920" y="9200" width="361" height="351" as="geometry" />
        </mxCell>
        <mxCell id="rkUVXD0O67Qp-18e9q78-45" value="" style="shape=image;imageAspect=0;aspect=fixed;verticalLabelPosition=bottom;verticalAlign=top;image=https://learn.microsoft.com/en-us/azure/cost-management-billing/manage/media/cost-management-budget-scenario/billing-cost-management-budget-scenario-28.png;" vertex="1" parent="1">
          <mxGeometry x="1320" y="9200" width="371" height="520" as="geometry" />
        </mxCell>
        <mxCell id="rkUVXD0O67Qp-18e9q78-46" value="" style="shape=image;imageAspect=0;aspect=fixed;verticalLabelPosition=bottom;verticalAlign=top;image=https://d1.awsstatic.com/AWSCostManagement/Budgets/Product-Page-Diagram_AWS-Budgets%402x.9b1465604ee3e11f66f724716c2c40d1ba32aa6f.png;" vertex="1" parent="1">
          <mxGeometry x="40" y="1240" width="835.72" height="270" as="geometry" />
        </mxCell>
        <mxCell id="rkUVXD0O67Qp-18e9q78-47" value="" style="shape=image;imageAspect=0;aspect=fixed;verticalLabelPosition=bottom;verticalAlign=top;image=https://a0.awsstatic.com/libra-css/images/logos/aws_smile-header-desktop-en-white_59x35.png;" vertex="1" parent="1">
          <mxGeometry x="70.5" y="1173.5" width="59" height="35" as="geometry" />
        </mxCell>
        <mxCell id="rkUVXD0O67Qp-18e9q78-48" value="" style="shape=image;imageAspect=0;aspect=fixed;verticalLabelPosition=bottom;verticalAlign=top;image=https://cloud.google.com/static/billing/docs/images/budget-alert-diagram-all.png;" vertex="1" parent="1">
          <mxGeometry x="40" y="1640" width="493" height="506" as="geometry" />
        </mxCell>
        <mxCell id="rkUVXD0O67Qp-18e9q78-49" value="" style="shape=image;imageAspect=0;aspect=fixed;verticalLabelPosition=bottom;verticalAlign=top;image=https://www.gstatic.com/devrel-devsite/prod/v80bae38ba58d74b96b4842131d88ee335fbea404678aa063008110db834e2268/cloud/images/cloud-logo.svg;" vertex="1" parent="1">
          <mxGeometry x="40" y="1560" width="300" height="52" as="geometry" />
        </mxCell>
      </root>
    </mxGraphModel>
  </diagram>
</mxfile>
